<svg xmlns="http://www.w3.org/2000/svg" width="65.4376" height="79.4142" viewBox="0 0 65.4376 79.4142" preserveAspectRatio="none"><path d="M8.41804 2.22361C8.41807 3.18849 9.20023 3.97068 10.1651 3.97068C11.13 3.97065 11.9121 3.18847 11.9122 2.22361H14.8624C14.8624 3.18849 15.6446 3.97068 16.6094 3.97068C17.5741 3.97042 18.3565 3.18833 18.3565 2.22361H21.3057C21.3058 3.18844 22.088 3.9706 23.0528 3.97068C24.0177 3.97065 24.7998 3.18847 24.7999 2.22361H27.7501C27.7501 3.18849 28.5323 3.97068 29.4971 3.97068C30.4619 3.9705 31.2442 3.18838 31.2442 2.22361H34.1934C34.1935 3.18839 34.9757 3.97052 35.9405 3.97068C36.9054 3.97065 37.6875 3.18847 37.6876 2.22361H40.6378C40.6378 3.18849 41.42 3.97068 42.3848 3.97068C43.3497 3.97059 44.1319 3.18843 44.1319 2.22361H47.0811C47.0812 3.18834 47.8635 3.97044 48.8282 3.97068C49.7931 3.97065 50.5752 3.18847 50.5753 2.22361H53.5255C53.5255 3.18848 54.3077 3.97066 55.2725 3.97068C56.2374 3.97065 57.0196 3.18847 57.0196 2.22361H59.7198V4.9238C58.7549 4.9238 57.9727 5.70597 57.9727 6.67087C57.9728 7.63575 58.7549 8.41794 59.7198 8.41794V11.4883C58.7551 11.4883 57.973 12.2706 57.9727 13.2353C57.9728 14.2002 58.7549 14.9834 59.7198 14.9834V18.0537C58.7549 18.0537 57.9727 18.8358 57.9727 19.8008C57.9728 20.7656 58.7549 21.5478 59.7198 21.5478V24.6181C58.755 24.6181 57.973 25.4005 57.9727 26.3652C57.9728 27.3301 58.7549 28.1133 59.7198 28.1133V31.1836C58.7549 31.1836 57.9727 31.9657 57.9727 32.9306C57.9728 33.8955 58.7549 34.6777 59.7198 34.6777V37.748C58.755 37.748 57.973 38.5304 57.9727 39.4951C57.9728 40.46 58.7549 41.2431 59.7198 41.2431V44.3135C58.7549 44.3135 57.9727 45.0956 57.9727 46.0605C57.9728 47.0254 58.7549 47.8076 59.7198 47.8076V50.8779C58.755 50.8779 57.973 51.6603 57.9727 52.625C57.9728 53.5899 58.7549 54.372 59.7198 54.372V57.4433C58.7549 57.4433 57.9727 58.2255 57.9727 59.1904C57.9728 60.1553 58.7549 60.9375 59.7198 60.9375V64.0078C58.755 64.0078 57.973 64.7901 57.9727 65.7549C57.9728 66.7197 58.7549 67.5019 59.7198 67.5019V70.2021H57.0196C57.0194 69.2374 56.2373 68.4551 55.2725 68.4551C54.3078 68.4551 53.5257 69.2374 53.5255 70.2021H50.5753C50.5751 69.2374 49.793 68.4551 48.8282 68.4551C47.8636 68.4553 47.0813 69.2375 47.0811 70.2021H44.1319C44.1317 69.2374 43.3495 68.4552 42.3848 68.4551C41.4201 68.4551 40.638 69.2374 40.6378 70.2021H37.6876C37.6874 69.2374 36.9053 68.4551 35.9405 68.4551C34.9758 68.4552 34.1936 69.2375 34.1934 70.2021H31.2442C31.244 69.2375 30.4618 68.4552 29.4971 68.4551C28.5324 68.4551 27.7503 69.2374 27.7501 70.2021H24.7999C24.7997 69.2374 24.0176 68.4551 23.0528 68.4551C22.0881 68.4551 21.3059 69.2374 21.3057 70.2021H18.3565C18.3563 69.2375 17.574 68.4553 16.6094 68.4551C15.6447 68.4551 14.8626 69.2374 14.8624 70.2021H11.9122C11.912 69.2374 11.1299 68.4551 10.1651 68.4551C9.20033 68.4551 8.41824 69.2374 8.41804 70.2021H5.71785V67.5019C6.68271 67.5019 7.46488 66.7197 7.46492 65.7549C7.46469 64.7902 6.68259 64.0078 5.71785 64.0078V60.9375C6.68269 60.9374 7.46485 60.1552 7.46492 59.1904C7.46492 58.2255 6.68273 57.4434 5.71785 57.4433V54.372C6.68271 54.372 7.46488 53.5898 7.46492 52.625C7.46468 51.6603 6.68259 50.8779 5.71785 50.8779V47.8076C6.6827 47.8076 7.46486 47.0254 7.46492 46.0605C7.46492 45.0956 6.68273 44.3135 5.71785 44.3135V41.2431C6.68271 41.2431 7.46488 40.46 7.46492 39.4951C7.46467 38.5304 6.68258 37.748 5.71785 37.748V34.6777C6.6827 34.6777 7.46486 33.8955 7.46492 32.9306C7.46492 31.9657 6.68273 31.1836 5.71785 31.1836V28.1133C6.68271 28.1132 7.46488 27.3301 7.46492 26.3652C7.46467 25.4005 6.68258 24.6182 5.71785 24.6181V21.5478C6.68271 21.5478 7.46488 20.7656 7.46492 19.8008C7.46492 18.8359 6.68273 18.0537 5.71785 18.0537V14.9834C6.68271 14.9833 7.46488 14.2002 7.46492 13.2353C7.46466 12.2707 6.68257 11.4883 5.71785 11.4883V8.41794C6.68271 8.41792 7.46488 7.63573 7.46492 6.67087C7.46492 5.70598 6.68273 4.92383 5.71785 4.9238V2.22361H8.41804Z" fill="#000"/></svg>
