<svg preserveAspectRatio="none" overflow="visible" style="display: block;" width="16" height="16" viewBox="0 0 16 16" fill="none" xmlns="http://www.w3.org/2000/svg">
<g id="Frame">
<path id="Vector" d="M2.31869 1.60268C2.23204 1.57751 2.1402 1.57625 2.05291 1.59904C1.96561 1.62183 1.8861 1.66781 1.82282 1.73212C1.75953 1.79643 1.71483 1.87667 1.69345 1.96432C1.67206 2.05197 1.67479 2.14378 1.70135 2.23001L3.32269 7.50001H9.00002C9.13263 7.50001 9.2598 7.55269 9.35357 7.64646C9.44734 7.74022 9.50002 7.8674 9.50002 8.00001C9.50002 8.13262 9.44734 8.25979 9.35357 8.35356C9.2598 8.44733 9.13263 8.50001 9.00002 8.50001H3.32269L1.70135 13.77C1.67495 13.8562 1.67234 13.9479 1.69379 14.0355C1.71525 14.123 1.75997 14.2031 1.82323 14.2674C1.88649 14.3316 1.96593 14.3775 2.05315 14.4003C2.14036 14.423 2.23211 14.4218 2.31869 14.3967C6.72866 13.1142 10.8873 11.0882 14.6154 8.40601C14.6798 8.3597 14.7323 8.29873 14.7684 8.22814C14.8046 8.15754 14.8235 8.07934 14.8235 8.00001C14.8235 7.92067 14.8046 7.84248 14.7684 7.77188C14.7323 7.70128 14.6798 7.64031 14.6154 7.59401C10.8874 4.91154 6.72872 2.88531 2.31869 1.60268Z" fill="black"/>
</g>
</svg>
